<svg width="12" height="12" viewBox="0 0 12 12" fill="none" xmlns="http://www.w3.org/2000/svg">
<path d="M0 2C0 0.895431 0.895431 0 2 0H10C11.1046 0 12 0.895431 12 2V10C12 11.1046 11.1046 12 10 12H2C0.895431 12 0 11.1046 0 10V2Z" fill="#E52330"/>
<path d="M8.532 8.85556H6.996L4.508 4.53555H4.476C4.48667 4.80755 4.49734 5.07955 4.508 5.35155C4.524 5.62355 4.53734 5.89555 4.548 6.16755V8.85556H3.468V3.14355H4.996L7.476 7.42355H7.5C7.49467 7.15689 7.48667 6.89289 7.476 6.63156C7.46534 6.37022 7.45467 6.10889 7.444 5.84755V3.14355H8.532V8.85556Z" fill="white"/>
</svg>
