<svg width="34" height="34" viewBox="0 0 34 34" fill="none" xmlns="http://www.w3.org/2000/svg">
<path d="M17 33.834C26.2972 33.834 33.834 26.2972 33.834 17C33.834 7.70285 26.2972 0.166016 17 0.166016C7.70285 0.166016 0.166016 7.70285 0.166016 17C0.166016 26.2972 7.70285 33.834 17 33.834Z" fill="#00B800"/>
<path d="M24.8719 8.61523H9.12617C7.11532 8.61938 5.4884 10.2525 5.49196 12.2634V20.9178C5.48661 22.9285 7.11224 24.5628 9.12288 24.5681C9.12431 24.5681 9.12577 24.5681 9.12723 24.5681H14.5501L16.4021 27.5829C16.4196 27.6128 16.4397 27.6412 16.4622 27.6677C16.633 27.9642 17.0117 28.0661 17.3082 27.8953C17.4028 27.8408 17.4813 27.7622 17.5358 27.6677C17.5602 27.6403 17.5811 27.6101 17.5981 27.5775L19.449 24.566H24.8729C26.8841 24.5625 28.5117 22.9291 28.5082 20.9178C28.5082 20.9171 28.5082 20.9164 28.5082 20.9157V12.2634C28.5117 10.2521 26.8842 8.61879 24.8729 8.61523C24.8726 8.61523 24.8722 8.61523 24.8719 8.61523Z" fill="white"/>
<path d="M10.6023 14.9566C10.1488 14.9899 9.72289 15.1872 9.40417 15.5116V13.2764H7.99451V19.148H9.41922V18.6917C9.41922 18.6917 9.75523 19.2983 10.6002 19.2983C10.6002 19.2983 12.5864 19.2253 12.5864 17.1081C12.5885 17.1038 12.5155 14.9566 10.6023 14.9566ZM10.292 18.055C9.79162 18.0557 9.38541 17.6504 9.38482 17.1499C9.38422 16.6495 9.78943 16.2433 10.2899 16.2428C10.7903 16.2421 11.1965 16.6474 11.1971 17.1478C11.1971 17.1482 11.1971 17.1485 11.1971 17.1489C11.1971 17.6489 10.7921 18.0544 10.292 18.055Z" fill="#FF7309"/>
<path d="M13.0405 13.1455V14.5047C13.0405 14.5047 13.6847 14.4757 13.6847 15.6739V19.1493H15.0471V15.3507C15.0471 15.3507 15.0997 13.1455 13.0405 13.1455Z" fill="#FF7309"/>
<path d="M18.3635 14.9756C18.3635 14.9756 16.0348 14.9756 16.0348 17.1497C16.0348 17.1497 15.9596 19.2969 18.3635 19.2969C18.3635 19.2969 20.7448 19.2969 20.7448 17.1497C20.7448 17.1497 20.8221 14.9756 18.3635 14.9756ZM18.3635 18.0558C17.863 18.0564 17.4569 17.6512 17.4563 17.1507C17.4557 16.6503 17.8609 16.2441 18.3614 16.2436C18.8618 16.2429 19.268 16.6482 19.2686 17.1486C19.2686 17.149 19.2686 17.1493 19.2686 17.1497C19.2685 17.6497 18.8635 18.0552 18.3635 18.0558Z" fill="#FF7309"/>
<path d="M24.6335 15.1178V15.5118C24.3378 15.168 23.9059 14.9717 23.4525 14.975C23.4525 14.975 21.4567 14.8913 21.4567 17.1341C21.4567 17.1341 21.4352 19.2244 23.3956 19.2244C23.3956 19.2244 24.1954 19.2577 24.6335 18.6876V19.014C24.6335 19.014 24.7323 20.0436 23.7349 20.0436H23.3956V21.2911H23.9432C23.9432 21.2911 26.0023 21.3137 26.0023 19.0902V15.1178H24.6335ZM23.7907 18.0552C23.2902 18.0558 22.884 17.6506 22.8835 17.1501C22.8829 16.6497 23.2881 16.2435 23.7886 16.243C24.289 16.2423 24.6952 16.6476 24.6957 17.148C24.6957 17.1484 24.6957 17.1487 24.6957 17.1491C24.6964 17.649 24.2916 18.0546 23.7917 18.0552C23.7914 18.0552 23.791 18.0552 23.7907 18.0552Z" fill="#FF7309"/>
</svg>
