<svg width="34" height="34" viewBox="0 0 34 34" fill="none" xmlns="http://www.w3.org/2000/svg">
<path d="M21.0782 7.49902H13.0548C10.0292 7.49902 7.57642 9.95184 7.57642 12.9775V21.0009C7.57642 24.0265 10.0292 26.4792 13.0548 26.4792H21.0782C24.1038 26.4792 26.5566 24.0265 26.5566 21.0009V12.9774C26.5567 9.95184 24.1038 7.49902 21.0782 7.49902ZM24.8087 21.1419C24.8087 23.1503 23.1805 24.7785 21.1721 24.7785H12.9609C10.9525 24.7785 9.3243 23.1503 9.3243 21.1419V12.9306C9.3243 10.9222 10.9525 9.29408 12.9609 9.29408H21.1721C23.1805 9.29408 24.8087 10.9222 24.8087 12.9306V21.1419Z" fill="white"/>
<path d="M17.0666 12.1113C14.3467 12.1113 12.1418 14.3161 12.1418 17.036C12.1418 19.7558 14.3467 21.9606 17.0666 21.9606C19.7864 21.9606 21.9912 19.7558 21.9912 17.036C21.9913 14.3161 19.7864 12.1113 17.0666 12.1113ZM17.0666 20.2284C15.3034 20.2284 13.8741 18.7991 13.8741 17.036C13.8741 15.273 15.3034 13.8436 17.0666 13.8436C18.8297 13.8436 20.2589 15.273 20.2589 17.036C20.2589 18.7991 18.8297 20.2284 17.0666 20.2284Z" fill="white"/>
<path d="M22.1555 10.7773C21.5219 10.7773 21.0082 11.291 21.0082 11.9246C21.0082 12.5582 21.5219 13.0719 22.1555 13.0719C22.7891 13.0719 23.3028 12.5582 23.3028 11.9246C23.3028 11.291 22.7891 10.7773 22.1555 10.7773Z" fill="white"/>
</svg>
