<svg width="20" height="20" viewBox="0 0 20 20" fill="none" xmlns="http://www.w3.org/2000/svg">
<path fill-rule="evenodd" clip-rule="evenodd" d="M2.61538 4C2.27552 4 2 4.27789 2 4.62069V15.3793C2 15.7221 2.27552 16 2.61538 16H17.3846C17.7245 16 18 15.7221 18 15.3793V7.51724V4.62069C18 4.27789 17.7245 4 17.3846 4H14.1026H2.61538ZM3.23077 14.7586V5.24138H13.4872V7.51724C13.4872 7.86004 13.7627 8.13793 14.1026 8.13793H16.7692V14.7586H3.23077ZM16.7692 6.89655H14.7179V5.24138H16.7692V6.89655ZM3.84615 7.31034H5.89744V6.06897H3.84615V7.31034ZM12.0513 10C12.0513 11.1427 11.1329 12.069 10 12.069C8.86711 12.069 7.94872 11.1427 7.94872 10C7.94872 8.85734 8.86711 7.93103 10 7.93103C11.1329 7.93103 12.0513 8.85734 12.0513 10ZM13.2821 10C13.2821 11.8283 11.8126 13.3103 10 13.3103C8.18737 13.3103 6.71795 11.8283 6.71795 10C6.71795 8.17175 8.18737 6.68966 10 6.68966C11.8126 6.68966 13.2821 8.17175 13.2821 10Z" fill="#272727"/>
</svg>
