<svg width="20" height="20" viewBox="0 0 20 20" fill="none" xmlns="http://www.w3.org/2000/svg">
<path fill-rule="evenodd" clip-rule="evenodd" d="M9.06469 2.16913C9.30802 1.94362 9.69198 1.94362 9.93531 2.16913L11.1095 3.25732C11.2333 3.37201 11.3032 3.53057 11.3032 3.6963V5.15361L13.5817 6.38769C13.7802 6.49525 13.9032 6.69815 13.9032 6.91821V8.52127C13.9276 8.52961 13.9516 8.53943 13.9749 8.55069L15.6523 9.3615C15.8654 9.46451 16 9.67507 16 9.90541V16.3919C16 16.7277 15.7184 17 15.371 17H3.62903C3.28163 17 3 16.7277 3 16.3919V9.90541C3 9.67507 3.13461 9.46451 3.34772 9.3615L5.02514 8.55069C5.04843 8.53943 5.07235 8.52961 5.09677 8.52127V6.91821C5.09677 6.69815 5.21976 6.49525 5.41835 6.38769L7.69677 5.15361V3.6963C7.69677 3.53057 7.76675 3.37201 7.8905 3.25732L9.06469 2.16913ZM6.35484 8.48649V7.27455L8.63327 6.04047C8.83186 5.93291 8.95484 5.73002 8.95484 5.50996V3.95574L9.5 3.45051L10.0452 3.95574V5.50996C10.0452 5.73002 10.1681 5.93291 10.3667 6.04047L12.6452 7.27455V8.48649H6.35484ZM5.45495 9.7027L4.25806 10.2812V10.7055H7.15161V11.9218H4.25806V13.2447H7.15161V14.4609H4.25806V15.7838H14.7419V10.2812L13.5451 9.7027H5.45495Z" fill="#272727"/>
</svg>
