<svg width="20" height="20" viewBox="0 0 20 20" fill="none" xmlns="http://www.w3.org/2000/svg">
<path fill-rule="evenodd" clip-rule="evenodd" d="M8.12745 2.06266C8.34791 2.16596 8.48768 2.38042 8.48768 2.61539V7.48572H8.79064C9.14568 7.48572 9.4335 7.76123 9.4335 8.1011V11.7055H10.2094C10.5644 11.7055 10.8522 11.981 10.8522 12.3209V17.3846C10.8522 17.7245 10.5644 18 10.2094 18H2.64286C2.28782 18 2 17.7245 2 17.3846V12.3209C2 11.981 2.28782 11.7055 2.64286 11.7055H3.41872V8.1011C3.41872 7.76123 3.70654 7.48572 4.06158 7.48572H4.36453V4.72528C4.36453 4.53524 4.45625 4.35587 4.61303 4.23929L7.45046 2.1294C7.64431 1.98526 7.90698 1.95936 8.12745 2.06266ZM4.70443 8.71649V12.3209C4.70443 12.6607 4.41662 12.9363 4.06158 12.9363H3.28571V16.7692H9.5665V12.9363H8.79064C8.4356 12.9363 8.14778 12.6607 8.14778 12.3209V8.71649H4.70443ZM7.20197 7.48572H5.65025V5.02649L7.20197 3.87264V7.48572ZM13.2636 4.38946L14.0129 7.06374H14.9182L15.6674 4.38946C15.5237 4.16467 15.3253 3.89491 15.1044 3.66564C14.9579 3.51363 14.817 3.39584 14.6916 3.31963C14.5629 3.24147 14.4898 3.23077 14.4655 3.23077C14.4412 3.23077 14.3682 3.24147 14.2395 3.31963C14.114 3.39584 13.9732 3.51363 13.8267 3.66564C13.6057 3.89491 13.4073 4.16467 13.2636 4.38946ZM15.1582 8.29451H13.7729L13.2145 8.79272L13.148 16.7692H15.7143V8.79073L15.1582 8.29451ZM12.7987 7.48122L11.953 4.46271C11.9106 4.31145 11.9301 4.15042 12.0074 4.01241C12.1842 3.69691 12.4977 3.22947 12.8817 2.83107C13.0741 2.63143 13.2998 2.43274 13.5507 2.28038C13.7983 2.12997 14.1115 2 14.4655 2C14.8196 2 15.1327 2.12997 15.3804 2.28038C15.6312 2.43274 15.8569 2.63143 16.0493 2.83107C16.4333 3.22947 16.7469 3.69691 16.9236 4.01241C17.001 4.15042 17.0204 4.31145 16.9781 4.46271L16.1324 7.48122L16.7955 8.07293C16.9259 8.18933 17 8.35237 17 8.52308V17.3846C17 17.7245 16.7122 18 16.3571 18H12.5C12.3286 18 12.1643 17.9345 12.0436 17.818C11.9229 17.7015 11.8558 17.5438 11.8572 17.3797L11.9311 8.51817C11.9325 8.34917 12.0064 8.18817 12.1356 8.07293L12.7987 7.48122Z" fill="#272727"/>
</svg>
