<svg width="20" height="20" viewBox="0 0 20 20" fill="none" xmlns="http://www.w3.org/2000/svg">
<path d="M3 4L3.176 3.43804C2.99717 3.38203 2.80235 3.41448 2.65133 3.52544C2.50031 3.63639 2.41112 3.8126 2.41112 4H3ZM3 14.2857H2.41112C2.41112 14.5233 2.55386 14.7376 2.77308 14.8291L3 14.2857ZM7.10526 16L6.87835 16.5434C6.95023 16.5734 7.02736 16.5889 7.10526 16.5889V16ZM16 4H16.5889C16.5889 3.8126 16.4997 3.63639 16.3487 3.52544C16.1976 3.41448 16.0028 3.38203 15.824 3.43804L16 4ZM16 14.2857L16.2269 14.8291C16.4461 14.7376 16.5889 14.5233 16.5889 14.2857H16ZM11.8947 16V16.5889C11.9726 16.5889 12.0498 16.5734 12.1217 16.5434L11.8947 16ZM2.41112 4V14.2857H3.58888V4H2.41112ZM2.77308 14.8291L6.87835 16.5434L7.33218 15.4566L3.22692 13.7423L2.77308 14.8291ZM7.10526 16.5889H8.47368V15.4111H7.10526V16.5889ZM9.06256 16V5.71429H7.8848V16H9.06256ZM8.64968 5.15232L3.176 3.43804L2.824 4.56196L8.29768 6.27625L8.64968 5.15232ZM15.4111 4V14.2857H16.5889V4H15.4111ZM15.7731 13.7423L11.6678 15.4566L12.1217 16.5434L16.2269 14.8291L15.7731 13.7423ZM11.8947 15.4111H10.5263V16.5889H11.8947V15.4111ZM11.1152 16V5.71429H9.93744V16H11.1152ZM10.7023 6.27625L16.176 4.56196L15.824 3.43804L10.3503 5.15232L10.7023 6.27625ZM8.47368 6.30317H10.5263V5.12541H8.47368V6.30317ZM10.5263 15.4111H8.47368V16.5889H10.5263V15.4111ZM12.4638 9.25769L14.5164 8.40055L14.0626 7.31374L12.0099 8.17088L12.4638 9.25769ZM12.4638 11.8291L14.5164 10.972L14.0626 9.88517L12.0099 10.7423L12.4638 11.8291Z" fill="#272727"/>
</svg>
