<svg width="20" height="20" viewBox="0 0 20 20" fill="none" xmlns="http://www.w3.org/2000/svg">
<path fill-rule="evenodd" clip-rule="evenodd" d="M5.50957 6.16514C5.47103 6.2316 5.44456 6.2832 5.42857 6.31878V7.33499H14.5714L14.5714 6.24834C14.5714 6.24834 14.5714 6.24828 14.5714 6.24816C14.5713 6.24609 14.5697 6.22595 14.5548 6.18448C14.5384 6.13902 14.5106 6.08078 14.4682 6.01096C14.3826 5.86989 14.2583 5.71514 14.1178 5.56665C13.9787 5.41957 13.8368 5.29234 13.727 5.2055C13.7053 5.18829 13.686 5.17359 13.6692 5.16129H6.30055C6.28165 5.17672 6.25767 5.19771 6.22868 5.22538C6.11745 5.33152 5.98205 5.48808 5.84747 5.66511C5.71404 5.84065 5.59357 6.02029 5.50957 6.16514ZM4.28571 6.82878V7.39027C3.94257 7.46185 3.66387 7.60073 3.44954 7.79376C3.13318 8.0787 3 8.44585 3 8.74938V13.7519C3 14.0224 3.18211 14.2498 3.42857 14.3142V15.4194C3.42857 15.74 3.68441 16 4 16H6.57143C6.88702 16 7.14286 15.74 7.14286 15.4194V14.3325H12.8571V15.4194C12.8571 15.74 13.113 16 13.4286 16H16C16.3156 16 16.5714 15.74 16.5714 15.4194V14.3142C16.8179 14.2498 17 14.0224 17 13.7519V8.74938C17 8.09693 16.5579 7.72887 16.185 7.55477C16.0313 7.48298 15.8697 7.43212 15.7143 7.39795V6.82878H16.8571V5.66749H15.5808C15.5381 5.5704 15.4893 5.48095 15.441 5.40144C15.2989 5.16733 15.1167 4.94689 14.9417 4.76189C14.7654 4.57547 14.5829 4.41088 14.4292 4.28929C14.3532 4.22914 14.2765 4.17329 14.2055 4.12928C14.1707 4.10772 14.1276 4.08291 14.0804 4.06155L14.079 4.06095C14.0501 4.04783 13.9444 4 13.8095 4H6.19048C5.98104 4 5.81379 4.0958 5.72904 4.15033C5.62713 4.2159 5.53096 4.29808 5.44632 4.37884C5.27541 4.54193 5.09891 4.75014 4.943 4.95523C4.78596 5.16183 4.63738 5.38169 4.52495 5.57556C4.50729 5.60601 4.48999 5.63674 4.47331 5.66749H3.14286V6.82878H4.28571ZM4.57143 14.8387V14.3325H6V14.8387H4.57143ZM4.14286 8.75624V13.1712H15.8571V8.74938C15.8571 8.72056 15.8516 8.71286 15.8436 8.70274C15.8282 8.68339 15.7892 8.64799 15.7078 8.61C15.5376 8.53053 15.3043 8.49628 15.1429 8.49628H4.85714C4.44409 8.49628 4.27036 8.60629 4.2076 8.66281C4.15792 8.70756 4.14618 8.74576 4.14352 8.75441C4.14315 8.75563 4.14295 8.75626 4.14286 8.75624ZM14 14.3325H15.4286V14.8387H14V14.3325ZM6.35023 5.12585C6.35016 5.12609 6.34726 5.12793 6.34172 5.13065C6.34752 5.12698 6.35029 5.12561 6.35023 5.12585ZM6.19048 11.5484C6.61126 11.5484 6.95238 11.2018 6.95238 10.7742C6.95238 10.3466 6.61126 10 6.19048 10C5.76969 10 5.42857 10.3466 5.42857 10.7742C5.42857 11.2018 5.76969 11.5484 6.19048 11.5484ZM6.19048 12.3226C7.03205 12.3226 7.71429 11.6293 7.71429 10.7742C7.71429 9.91904 7.03205 9.22581 6.19048 9.22581C5.3489 9.22581 4.66667 9.91904 4.66667 10.7742C4.66667 11.6293 5.3489 12.3226 6.19048 12.3226ZM11.7143 10.5807H8.28571V9.41937H11.7143V10.5807ZM14.5714 10.7742C14.5714 11.2018 14.2303 11.5484 13.8095 11.5484C13.3887 11.5484 13.0476 11.2018 13.0476 10.7742C13.0476 10.3466 13.3887 10 13.8095 10C14.2303 10 14.5714 10.3466 14.5714 10.7742ZM15.3333 10.7742C15.3333 11.6293 14.6511 12.3226 13.8095 12.3226C12.9679 12.3226 12.2857 11.6293 12.2857 10.7742C12.2857 9.91904 12.9679 9.22581 13.8095 9.22581C14.6511 9.22581 15.3333 9.91904 15.3333 10.7742ZM11.2857 12.0546H8.71429V11.2804H11.2857V12.0546Z" fill="#272727"/>
</svg>
