<svg width="20" height="20" viewBox="0 0 20 20" fill="none" xmlns="http://www.w3.org/2000/svg">
<path fill-rule="evenodd" clip-rule="evenodd" d="M6.13119 4.03354L6.13117 2.00002L7.38923 2L7.38926 3.75476C8.33764 3.70971 9.03985 3.93702 9.50001 4.2834C9.96017 3.93702 10.6624 3.70971 11.6108 3.75476V2.00001H12.8688V4.03353C13.1991 4.21137 13.466 4.47325 13.6532 4.80042C13.917 5.26157 14.0014 5.81302 13.9416 6.37714C13.8351 7.38247 13.2687 8.50073 12.2495 9.51303L15.9186 16.0544C16.0287 16.2506 16.027 16.4909 15.9143 16.6856C15.8015 16.8803 15.5947 17 15.371 17H3.62903C3.40533 17 3.19846 16.8803 3.08573 16.6856C2.97299 16.4909 2.97134 16.2506 3.08141 16.0544L6.75051 9.51303C5.73127 8.50073 5.16489 7.38246 5.05839 6.37714C4.99862 5.81301 5.083 5.26156 5.34685 4.80041C5.53403 4.47325 5.8009 4.21137 6.13119 4.03354ZM6.89587 5.08241C6.67686 5.14532 6.53107 5.26869 6.43677 5.4335C6.33367 5.6137 6.27127 5.88318 6.30935 6.24259C6.38594 6.96554 6.86603 7.95773 7.95516 8.90954C8.1812 9.10708 8.23785 9.43771 8.09063 9.70018L4.70709 15.7324H14.2929L10.9094 9.70018C10.7622 9.43771 10.8188 9.10708 11.0448 8.90954C12.134 7.95773 12.6141 6.96554 12.6907 6.24259C12.7288 5.88317 12.6664 5.6137 12.5633 5.4335C12.469 5.26869 12.3232 5.14532 12.1042 5.08241C10.4847 4.80726 10.1241 5.43387 10.1003 5.47511C10.0993 5.47694 10.0991 5.47702 10.0991 5.47702C10.0156 5.73946 9.77349 5.91751 9.5 5.91751C9.22651 5.91751 8.98435 5.73946 8.90094 5.47702C8.90094 5.47702 8.90074 5.47694 8.89969 5.47512C8.87596 5.43388 8.51534 4.80726 6.89587 5.08241Z" fill="#272727"/>
</svg>
