<svg width="20" height="20" viewBox="0 0 20 20" fill="none" xmlns="http://www.w3.org/2000/svg">
<path fill-rule="evenodd" clip-rule="evenodd" d="M17 10.8721C17 7.26755 14.3725 4.28793 10.9614 3.81083C11.2271 3.56214 11.6073 3.31931 12.1493 3.11235L11.7397 2C10.6059 2.43295 9.90563 3.0595 9.5325 3.7598C5.88448 4.00475 3 7.0954 3 10.8721C3 14.8087 6.13401 18 10 18C13.866 18 17 14.8087 17 10.8721ZM10.3697 4.94389C10.3326 5.30814 10.4167 5.64054 10.5218 5.85449L9.47829 6.38577C9.30636 6.03562 9.1723 5.53984 9.19682 4.98799C6.35522 5.38647 4.16667 7.86902 4.16667 10.8721C4.16667 14.1526 6.77834 16.812 10 16.812C13.2217 16.812 15.8333 14.1526 15.8333 10.8721C15.8333 7.718 13.4191 5.13809 10.3697 4.94389ZM7.64308 7.72814L7.65059 7.73579C7.84351 7.93225 8.16315 8.25776 8.54289 8.53396C8.91655 8.80574 9.42823 9.0901 10 9.0901C10.5718 9.0901 11.0835 8.80574 11.4571 8.53396C11.8369 8.25776 12.1565 7.93225 12.3494 7.73579L12.3569 7.72814L11.532 6.8881C11.3351 7.08852 11.0748 7.35208 10.779 7.56726C10.4721 7.79048 10.206 7.90211 10 7.90211C9.79399 7.90211 9.5279 7.79048 9.221 7.56726C8.92516 7.35208 8.66486 7.08852 8.46803 6.8881L7.64308 7.72814Z" fill="#272727"/>
</svg>
