<svg width="20" height="20" viewBox="0 0 20 20" fill="none" xmlns="http://www.w3.org/2000/svg">
<path fill-rule="evenodd" clip-rule="evenodd" d="M3.37143 3.62687C3.37143 3.28066 3.65925 3 4.01429 3H14.9857C15.3408 3 15.6286 3.28066 15.6286 3.62687V7.31391H16.3571C16.7122 7.31391 17 7.59457 17 7.94078V15.2744C17 15.6206 16.7122 15.9013 16.3571 15.9013H15.6286V17H14.3429V15.9013H4.65714V17H3.37143V15.9013H2.64286C2.28782 15.9013 2 15.6206 2 15.2744V7.94078C2 7.59457 2.28782 7.31391 2.64286 7.31391H3.37143V3.62687ZM3.79072 8.56765H3.28571V14.6476H15.7143V8.56765H15.2093C14.8853 8.87054 14.2571 9.74602 14.2571 11.3919C14.2571 11.7381 13.9693 12.0188 13.6143 12.0188H5.38571C5.03067 12.0188 4.74286 11.7381 4.74286 11.3919C4.74286 9.74602 4.11471 8.87054 3.79072 8.56765ZM14.3429 7.64095V4.25373H4.65714V7.64095C5.22072 8.1537 5.86388 9.189 6.00171 10.765H12.9983C13.1361 9.189 13.7793 8.1537 14.3429 7.64095ZM6.57143 8.37217V6.64661H7.85714V8.37217H6.57143ZM11.1429 8.37217V6.64661H12.4286V8.37217H11.1429Z" fill="#272727"/>
</svg>
