<svg width="20" height="20" viewBox="0 0 20 20" fill="none" xmlns="http://www.w3.org/2000/svg">
<path fill-rule="evenodd" clip-rule="evenodd" d="M6.37761 5.51613H1.85V6.77419H2.4875V8.87097H1V10.129H2.4875V15.371C2.4875 15.7184 2.77292 16 3.125 16H15.875C16.2271 16 16.5125 15.7184 16.5125 15.371V10.129H18V8.87097H16.5125V6.77419H17.15V5.51613H12.6224C12.5386 5.0967 12.3656 4.62752 12.0574 4.20503C11.5567 3.51887 10.7278 3 9.5 3C8.27223 3 7.44334 3.51887 6.94265 4.20503C6.63436 4.62752 6.46143 5.0967 6.37761 5.51613ZM7.69119 5.51613H11.3088C11.2469 5.32096 11.1541 5.12034 11.0226 4.94013C10.7583 4.57791 10.3122 4.25806 9.5 4.25806C8.68777 4.25806 8.24166 4.57791 7.97735 4.94013C7.84586 5.12034 7.75312 5.32096 7.69119 5.51613ZM15.2375 6.77419H3.7625V14.7419H15.2375V6.77419Z" fill="#272727"/>
</svg>
