<svg width="20" height="20" viewBox="0 0 20 20" fill="none" xmlns="http://www.w3.org/2000/svg">
<path fill-rule="evenodd" clip-rule="evenodd" d="M6.83261 3.35243C6.94883 3.22844 7.11037 3.1582 7.27935 3.1582H12.7206C12.8896 3.1582 13.0512 3.22844 13.1674 3.35243L13.7627 3.98755H15.0526C15.274 3.98755 15.4782 4.10769 15.5876 4.30218L17.9196 8.44891C18.0042 8.59934 18.023 8.77859 17.9714 8.9436L16.4168 13.9197C16.3359 14.1784 16.0984 14.3544 15.83 14.3544H14.8907V14.5617C14.8907 14.7209 14.8303 14.874 14.722 14.9895L13.1674 16.6482C13.0512 16.7722 12.8896 16.8424 12.7206 16.8424H7.27935C7.11037 16.8424 6.94883 16.7722 6.83261 16.6482L5.27796 14.9895C5.16967 14.874 5.10931 14.7209 5.10931 14.5617V14.3544H4.17004C3.90156 14.3544 3.66407 14.1784 3.58322 13.9197L2.02857 8.9436C1.97701 8.77859 1.99579 8.59934 2.08039 8.44891L4.41237 4.30218C4.52175 4.10769 4.72603 3.98755 4.94737 3.98755H6.23733L6.83261 3.35243ZM5.10931 5.5803L3.28305 8.82775L4.62105 13.1104H5.10931V5.5803ZM14.8907 13.1104H15.379L16.7169 8.82775L14.8907 5.5803V13.1104ZM7.54405 4.40222L6.34008 5.68676V14.3139L7.54405 15.5984H8.15385V14.9764C8.15385 14.7684 8.25668 14.5742 8.42788 14.4588L9.65865 13.6295C9.86535 13.4902 10.1346 13.4902 10.3414 13.6295L11.5721 14.4588C11.7433 14.5742 11.8462 14.7684 11.8462 14.9764V15.5984H12.456L13.6599 14.3139V5.68676L12.456 4.40222H7.54405ZM7.74359 8.75629H8.97436V10.415H7.74359V8.75629ZM11.0256 8.75629H12.2564V10.415H11.0256V8.75629Z" fill="#272727"/>
</svg>
