<svg width="20" height="20" viewBox="0 0 20 20" fill="none" xmlns="http://www.w3.org/2000/svg">
<path fill-rule="evenodd" clip-rule="evenodd" d="M14.151 14.0984C15.1912 13.0449 15.8333 11.5975 15.8333 10C15.8333 8.40254 15.1912 6.95506 14.151 5.90159C12.002 8.2082 12.002 11.7918 14.151 14.0984ZM13.2514 14.8439C12.3224 15.4687 11.2038 15.8333 10 15.8333C8.79623 15.8333 7.67763 15.4687 6.74861 14.8439C9.25372 12.1049 9.25372 7.89508 6.74861 5.15611C7.67763 4.53129 8.79623 4.16667 10 4.16667C11.2038 4.16667 12.3224 4.53129 13.2514 5.15611C10.7463 7.89508 10.7463 12.1049 13.2514 14.8439ZM4.16667 10C4.16667 8.40254 4.80879 6.95506 5.849 5.90159C7.99803 8.2082 7.99803 11.7918 5.849 14.0984C4.80879 13.0449 4.16667 11.5975 4.16667 10ZM10 17C13.866 17 17 13.866 17 10C17 6.13401 13.866 3 10 3C6.13401 3 3 6.13401 3 10C3 13.866 6.13401 17 10 17Z" fill="#272727"/>
</svg>
