<svg width="20" height="20" viewBox="0 0 20 20" fill="none" xmlns="http://www.w3.org/2000/svg">
<path fill-rule="evenodd" clip-rule="evenodd" d="M15 2L18.5355 5.53553L9.16447 14.9066L8.33783 15.2174L7.36954 16.1857L5.48102 16.0067L4.50655 16.9624L3.55893 15.9976L4.52815 15.047L4.34987 13.166L5.31815 12.1977L5.62894 11.3711L15 2ZM5.9104 13.518L5.7285 13.6999L5.82435 14.7112L6.83567 14.807L7.01757 14.6251L5.9104 13.518ZM8.10263 13.8703L8.40018 13.7584L13.8157 8.34283L12.1927 6.7198L6.77715 12.1354L6.66528 12.4329L8.10263 13.8703ZM13.1127 5.79983L14.7357 7.42286L14.9532 7.2054L13.3301 5.58237L13.1127 5.79983ZM14.2501 4.6624L15.8731 6.28543L16.6593 5.49925L15.0363 3.87622L14.2501 4.6624Z" fill="#272727"/>
</svg>
