<svg width="20" height="20" viewBox="0 0 20 20" fill="none" xmlns="http://www.w3.org/2000/svg">
<path fill-rule="evenodd" clip-rule="evenodd" d="M4.95448 4.2998C5.05926 4.1151 5.26193 4 5.48235 4H14.5176C14.7381 4 14.9407 4.1151 15.0455 4.2998L16.9279 7.61777C16.9752 7.70121 17 7.79456 17 7.8894V9.36406C17 9.67965 16.7314 9.93548 16.4 9.93548H16.2471V16H15.0471V9.93548H4.95294V16H3.75294V9.93548H3.6C3.26863 9.93548 3 9.67965 3 9.36406V7.8894C3 7.79456 3.02479 7.70121 3.07212 7.61777L4.95448 4.2998ZM4.2 8.79263H7.14118V5.14286H5.84015L4.2 8.0339V8.79263ZM8.34118 5.14286V8.79263H11.6588V5.14286H8.34118ZM12.8588 5.14286V8.79263H15.8V8.0339L14.1599 5.14286H12.8588ZM8.06399 11.5463C8.17695 11.4357 8.33209 11.3733 8.49412 11.3733H11.5059C11.6679 11.3733 11.823 11.4357 11.936 11.5463L12.689 12.2836C12.7979 12.3903 12.8588 12.5332 12.8588 12.682V16H11.6588V12.9141L11.2524 12.5161H8.74755L8.34118 12.9141V16H7.14118V12.682C7.14118 12.5332 7.20212 12.3903 7.31105 12.2836L8.06399 11.5463Z" fill="#272727"/>
</svg>
