<svg width="20" height="20" viewBox="0 0 20 20" fill="none" xmlns="http://www.w3.org/2000/svg">
<path fill-rule="evenodd" clip-rule="evenodd" d="M2 3.6C2 3.26863 2.2583 3 2.57692 3H9.86437C10.183 3 10.4413 3.26863 10.4413 3.6V9.77647H11.8381V7.36471C11.8381 7.03334 12.0964 6.76471 12.415 6.76471H14.6012C14.9198 6.76471 15.1781 7.03334 15.1781 7.36471V9.77647H16.4231C16.7417 9.77647 17 10.0451 17 10.3765V14.5176C17 14.849 16.7417 15.1176 16.4231 15.1176H15.1077C14.8481 16.2008 13.9016 17 12.7794 17C11.6571 17 10.7106 16.2008 10.451 15.1176H9.791C9.2954 16.2299 8.20866 17 6.94939 17C5.69013 17 4.60338 16.2299 4.10779 15.1176H2.57692C2.2583 15.1176 2 14.849 2 14.5176V3.6ZM3.82531 13.9176C3.82302 13.8669 3.82186 13.8159 3.82186 13.7647C3.82186 11.9742 5.22568 10.5294 6.94939 10.5294C8.67311 10.5294 10.0769 11.9742 10.0769 13.7647C10.0769 13.8159 10.0758 13.8669 10.0735 13.9176H10.451C10.7106 12.8345 11.6571 12.0353 12.7794 12.0353C13.9016 12.0353 14.8481 12.8345 15.1077 13.9176H15.8462V10.9765H9.86437C9.54575 10.9765 9.28745 10.7078 9.28745 10.3765V4.2H3.15385V13.9176H3.82531ZM14.0243 9.77647V7.96471H12.9919V9.77647H14.0243ZM4.18623 5.85882C4.18623 5.52745 4.44453 5.25882 4.76316 5.25882H7.67814C7.99676 5.25882 8.25506 5.52745 8.25506 5.85882V8.87059C8.25506 9.20196 7.99676 9.47059 7.67814 9.47059H4.76316C4.44453 9.47059 4.18623 9.20196 4.18623 8.87059V5.85882ZM5.34008 6.45882V8.27059H7.10121V6.45882H5.34008ZM6.94939 11.7294C5.85578 11.7294 4.97571 12.6443 4.97571 13.7647C4.97571 13.9674 5.00426 14.1621 5.05707 14.3455C5.29888 15.1849 6.05363 15.8 6.94939 15.8C7.84516 15.8 8.59991 15.1849 8.84172 14.3455C8.89453 14.1621 8.92308 13.9674 8.92308 13.7647C8.92308 12.6443 8.043 11.7294 6.94939 11.7294ZM12.7794 13.2353C12.0882 13.2353 11.5344 13.8131 11.5344 14.5176C11.5344 15.2222 12.0882 15.8 12.7794 15.8C13.4705 15.8 14.0243 15.2222 14.0243 14.5176C14.0243 13.8131 13.4705 13.2353 12.7794 13.2353Z" fill="#272727"/>
</svg>
