<svg width="20" height="20" viewBox="0 0 20 20" fill="none" xmlns="http://www.w3.org/2000/svg">
<path fill-rule="evenodd" clip-rule="evenodd" d="M10 2C10.1661 2 10.3251 2.06711 10.4409 2.18608L11.6069 3.38359C11.7188 3.49849 11.7814 3.65252 11.7814 3.81289V8.15411L17.5727 10.0128C17.8273 10.0945 18 10.3313 18 10.5988V12.1954C18 12.5353 17.7245 12.8108 17.3846 12.8108H11.7814V15.3755L13.3432 16.0171C13.574 16.1119 13.7247 16.3367 13.7247 16.5863V17.3846C13.7247 17.7245 13.4492 18 13.1093 18H6.89069C6.55082 18 6.2753 17.7245 6.2753 17.3846V16.5863C6.2753 16.3367 6.42601 16.1119 6.65685 16.0171L8.21862 15.3755V12.8108H2.61538C2.27552 12.8108 2 12.5353 2 12.1954V10.5988C2 10.3313 2.1727 10.0945 2.42733 10.0128L8.21862 8.15411V3.81289C8.21862 3.65252 8.28123 3.49849 8.3931 3.38359L9.55909 2.18608C9.67494 2.06711 9.83394 2 10 2ZM10 3.49751L9.44939 4.063V8.60291C9.44939 8.87033 9.27669 9.10714 9.02207 9.18886L3.23077 11.0475V11.58H8.83401C9.17388 11.58 9.44939 11.8556 9.44939 12.1954V15.7879C9.44939 16.0375 9.29868 16.2623 9.06785 16.3572L8.0648 16.7692H11.9352L10.9321 16.3572C10.7013 16.2623 10.5506 16.0375 10.5506 15.7879V12.1954C10.5506 11.8556 10.8261 11.58 11.166 11.58H16.7692V11.0475L10.9779 9.18886C10.7233 9.10714 10.5506 8.87033 10.5506 8.60291V4.063L10 3.49751Z" fill="#272727"/>
</svg>
